# xmcd
#
# Track frame offsets:
#	150
#	22489
#	44802
#	68164
#	88025
#	106520
#	142683
#	162925
#	194168
#	211848
#	231940
#
# Disc length: 3435 seconds
#
# Revision: 0
# Processed by: cddbd v1.5.2PL0 Copyright (c) Steve Scherf et al.
# Submitted via: EasyCDDAExtractor 2010.4.0.0
#
DISCID=9c0d690b
DTITLE=Cyril Neville - The Essential Cyril Neville 1994-2007
DYEAR=2010
DGENRE=Blues New Orleans
TTITLE0=The Blues Is Here To Stay
TTITLE1=Foxy Lady
TTITLE2=Tipitina
TTITLE3=Ayiti
TTITLE4=New Orleans Cookin'
TTITLE5=Fortune Teller
TTITLE6=Indians Got That Fire
TTITLE7=The Time They Are A Changin'
TTITLE8=Projects
TTITLE9=Hearts Desire
TTITLE10=Funkaliscious
EXTD=
EXTT0=
EXTT1=
EXTT2=
EXTT3=
EXTT4=
EXTT5=
EXTT6=
EXTT7=
EXTT8=
EXTT9=
EXTT10=
PLAYORDER=
